<svg width="40" height="40" viewBox="0 0 40 40" fill="none" xmlns="http://www.w3.org/2000/svg">
<path fill-rule="evenodd" clip-rule="evenodd" d="M20.7048 26.965C20.473 26.9881 20.2379 27 20 27C18.9385 27 17.9323 26.7637 17.0309 26.3409C16.6453 26.1988 16.3547 26.0393 16.1819 25.868C14.2663 24.619 13 22.4574 13 20C13 16.134 16.134 13 20 13C23.866 13 27 16.134 27 20C27 21.6154 26.4528 23.103 25.5336 24.2876C27.0287 24.5604 28 25.0018 28 25.5C28 26.3284 25.3137 27 22 27C21.5553 27 21.1219 26.9879 20.7048 26.965ZM19.0156 19.0006C19.0156 19.5924 18.5259 20.0721 17.9219 20.0721C17.3178 20.0721 16.8281 19.5924 16.8281 19.0006C16.8281 18.6037 17.0484 18.2572 17.3757 18.072C17.3945 18.588 17.8188 19.0006 18.3394 19.0006H19.0156ZM21.8594 20.0721C21.2553 20.0721 20.7656 19.5924 20.7656 19.0006H21.4419C21.9625 19.0006 22.3868 18.588 22.4056 18.072C22.7329 18.2572 22.9531 18.6037 22.9531 19.0006C22.9531 19.5924 22.4634 20.0721 21.8594 20.0721Z" fill="#5F606D"/>
</svg>
